<?xml version="1.0" encoding="UTF-8"?>
<svg width="752pt" height="752pt" version="1.1" viewBox="0 0 752 752" xmlns="http://www.w3.org/2000/svg">
 <g>
  <path d="m587.22 239.14h-67.723c0.94531-2.8398 1.4219-5.6836 1.4219-8.5234v-19.418c0-6.1562-4.7344-10.891-10.891-10.891h-19.418c-16.574 0-30.309 13.734-30.309 30.309v5.2109c-4.7344-10.418-15.156-17.996-27.469-17.996h-19.418c-6.1562 0-10.891 4.7344-10.891 10.891v19.418c0 12.785 8.0508 23.68 18.941 27.941l-121.71-0.003906c-54.461 0-98.504 44.043-98.504 98.504v74.824c-26.992 5.2109-47.359 28.414-47.359 56.828 0 31.73 26.047 57.777 57.777 57.777h244.84c6.1562 0 10.891-4.7344 10.891-10.891s-4.7344-10.891-10.891-10.891h-244.84c-19.891 0-36.465-16.102-36.465-36.465 0-16.574 11.367-30.781 26.992-35.047 6.6289 31.258 38.832 45.465 71.039 45.465h49.727c5.6836 0 10.891-4.2617 11.367-9.4727 0.47266-6.6289-4.2617-11.84-10.891-11.84-7.5781 0-17.996-5.6836-25.574-18.941-0.47266-1.4219 0-2.8398 1.4219-2.8398 27.469 0 52.094-10.891 69.617-28.887 0 0 0-0.47266 0.47266-0.47266l18.469 24.625c0.47266 0.94531 0.47266 1.4219 0.94531 2.3672 0.94531 1.8945 2.3672 3.3164 3.3164 5.2109 16.102 25.102 28.887 40.727 90.453 40.727l2.8398-0.47266c6.1562 0 10.891-4.7344 10.891-10.891s-4.7344-10.891-10.891-10.891c-0.47266 0-10.891 0-17.996-12.312-2.8398-5.2109-5.6836-13.734-5.2109-18.469l9.4727-48.777 30.781-64.879c18.941-1.8945 83.352-11.367 92.82-52.566 2.3672-11.367 2.3672-41.676 1.8945-47.359 0.47656-6.168-4.2578-10.902-9.9414-10.902zm-105.61-8.5234c0-4.7344 3.7891-8.5234 8.5234-8.5234l9-0.003906v8.5234c0 4.7344-3.7891 8.5234-8.5234 8.5234h-8.5234l-0.003907-8.5195zm-57.777 8.5234h9c4.7344 0 8.5234 3.7891 8.5234 8.5234v8.5234h-8.5234c-4.7344 0-8.5234-3.7891-8.5234-8.5234v-8.5234zm151.07 53.039c-7.5781 33.152-79.09 36.465-79.562 36.465-4.7344 0-8.5234 3.3164-9.9453 8.0508l-33.152 70.09c0 0.47266 0 0.47266-0.47266 0.94531v0.47266 0.47266 0.47266 0.47266 0.47266l-9.4727 50.672v0.94531c-0.94531 8.5234 1.4219 17.051 7.1055 25.574 1.4219 2.3672-0.47266 5.2109-3.3164 4.7344-19.891-4.7344-25.574-13.734-34.57-27.469-0.94531-1.4219-1.8945-2.8398-2.8398-4.2617l-26.523-32.191c9.9453-15.629 16.102-34.098 16.102-53.988v-5.6836c0.47266-6.1562-4.7344-11.367-10.891-11.367-2.8398 0-5.6836 0.94531-7.5781 2.8398-1.8945 1.8945-3.3164 4.2617-3.3164 7.5781v6.1562c0 12.312-2.8398 24.152-8.0508 34.57-12.785 25.102-38.832 42.148-68.668 42.148h-27.469 3.3164c-5.2109 0-9.4727 4.2617-9.4727 8.9961v1.4219 0.94531c0.94531 3.3164 2.3672 6.6289 4.2617 9.4727 2.3672 3.7891 4.7344 8.0508 7.5781 11.84 3.3164 4.2617 0.47266 10.418-4.7344 10.418-2.3672 0-11.84 0-21.785-2.8398-9.9453-2.8398-20.836-8.0508-26.047-18.941-1.4219-2.8398-2.3672-6.6289-2.8398-10.891v-3.3164-83.348c0-42.621 34.57-77.195 77.195-77.195h138.76c3.3164 0 6.1562-1.4219 8.5234-4.2617l25.574-32.676h104.19c-0.47656 12.789-0.94922 26.996-1.8945 32.203z"/>
  <path d="m513.81 294.07c2.8398 0 5.6836-0.94531 7.5781-3.3164 1.8945-1.8945 3.3164-4.7344 3.3164-7.5781 0-2.8398-0.94531-5.6836-3.3164-7.5781-1.8945-1.8945-4.7344-3.3164-7.5781-3.3164-2.8398 0-5.6836 0.94531-7.5781 3.3164-1.8945 1.8945-3.3164 4.7344-3.3164 7.5781 0 2.8398 0.94531 5.6836 3.3164 7.5781 1.8945 1.8984 4.7383 3.3164 7.5781 3.3164z"/>
 </g>
</svg>
