<?xml version="1.0" encoding="UTF-8" standalone="no"?>
<!DOCTYPE svg PUBLIC "-//W3C//DTD SVG 1.1//EN" "http://www.w3.org/Graphics/SVG/1.1/DTD/svg11.dtd">
<svg width="100%" height="100%" viewBox="0 0 444 444" version="1.1" xmlns="http://www.w3.org/2000/svg" xmlns:xlink="http://www.w3.org/1999/xlink" xml:space="preserve" xmlns:serif="http://www.serif.com/" style="fill-rule:evenodd;clip-rule:evenodd;stroke-linejoin:round;stroke-miterlimit:2;">
    <g transform="matrix(1,0,0,1,-154,-154)">
        <path d="M587.22,239.14L519.497,239.14C520.442,236.3 520.919,233.456 520.919,230.617L520.919,211.199C520.919,205.042 516.185,200.308 510.028,200.308L490.61,200.308C474.036,200.308 460.301,214.042 460.301,230.617L460.301,235.827C455.567,225.409 445.145,217.831 432.832,217.831L413.414,217.831C407.258,217.831 402.523,222.566 402.523,228.722L402.523,248.14C402.523,260.926 410.574,271.821 421.464,276.081L299.754,276.078C245.293,276.078 201.25,320.121 201.25,374.582L201.25,449.406C174.258,454.616 153.891,477.82 153.891,506.234C153.891,537.964 179.938,564.011 211.668,564.011L456.508,564.011C462.664,564.011 467.399,559.276 467.399,553.12C467.399,546.963 462.665,542.229 456.508,542.229L211.668,542.229C191.777,542.229 175.203,526.127 175.203,505.764C175.203,489.19 186.57,474.983 202.195,470.717C208.824,501.975 241.027,516.182 273.234,516.182L322.961,516.182C328.645,516.182 333.852,511.92 334.328,506.709C334.801,500.08 330.066,494.869 323.437,494.869C315.859,494.869 305.441,489.185 297.863,475.928C297.39,474.506 297.863,473.088 299.285,473.088C326.754,473.088 351.379,462.197 368.902,444.201C368.902,444.201 368.902,443.728 369.374,443.728L387.843,468.353C388.316,469.299 388.316,469.775 388.789,470.721C389.734,472.615 391.156,474.037 392.105,475.932C408.207,501.034 420.992,516.659 482.558,516.659L485.398,516.186C491.554,516.186 496.289,511.451 496.289,505.295C496.289,499.138 491.555,494.404 485.398,494.404C484.925,494.404 474.507,494.404 467.402,482.092C464.562,476.881 461.718,468.358 462.191,463.623L471.664,414.846L502.445,349.967C521.386,348.072 585.797,338.6 595.265,297.401C597.632,286.034 597.632,255.725 597.159,250.042C597.636,243.874 592.901,239.14 587.218,239.14L587.22,239.14ZM481.61,230.617C481.61,225.882 485.399,222.093 490.133,222.093L499.133,222.089L499.133,230.613C499.133,235.347 495.344,239.136 490.61,239.136L482.087,239.136L482.083,230.617L481.61,230.617ZM423.833,239.14L432.833,239.14C437.567,239.14 441.356,242.929 441.356,247.663L441.356,256.187L432.833,256.187C428.099,256.187 424.31,252.398 424.31,247.663L424.31,239.14L423.833,239.14ZM574.903,292.179C567.325,325.331 495.813,328.644 495.341,328.644C490.607,328.644 486.818,331.96 485.396,336.695L452.244,406.785C452.244,407.257 452.244,407.257 451.771,407.73L451.771,410.093L442.298,460.765L442.298,461.711C441.353,470.234 443.72,478.762 449.404,487.285C450.826,489.652 448.931,492.496 446.087,492.019C426.196,487.285 420.513,478.285 411.517,464.55C410.572,463.128 409.623,461.71 408.678,460.288L382.155,428.097C392.1,412.468 398.257,393.999 398.257,374.109L398.257,368.426C398.729,362.27 393.522,357.059 387.366,357.059C384.526,357.059 381.682,358.004 379.788,359.899C377.893,361.793 376.471,364.16 376.471,367.477L376.471,373.633C376.471,385.945 373.631,397.785 368.42,408.203C355.635,433.305 329.588,450.351 299.752,450.351L272.283,450.351L275.6,450.351C270.389,450.351 266.127,454.613 266.127,459.347L266.127,461.714C267.072,465.031 268.494,468.343 270.389,471.187C272.756,474.976 275.123,479.238 277.967,483.027C281.283,487.289 278.44,493.445 273.232,493.445C270.865,493.445 261.392,493.445 251.447,490.605C241.502,487.765 230.611,482.554 225.4,471.664C223.979,468.824 223.033,465.035 222.561,460.773L222.561,374.109C222.561,331.488 257.131,296.914 299.756,296.914L438.516,296.914C441.832,296.914 444.672,295.492 447.039,292.652L472.613,259.976L576.803,259.976C576.326,272.765 575.854,286.972 574.909,292.179L574.903,292.179Z" style="fill-rule:nonzero;"/>
        <path d="M513.81,294.07C516.65,294.07 519.494,293.125 521.388,290.754C523.283,288.859 524.704,286.019 524.704,283.176C524.704,280.336 523.759,277.492 521.388,275.597C519.494,273.703 516.654,272.281 513.81,272.281C510.97,272.281 508.126,273.226 506.232,275.597C504.337,277.492 502.915,280.332 502.915,283.176C502.915,286.015 503.861,288.859 506.232,290.754C508.126,292.652 510.97,294.07 513.81,294.07Z" style="fill-rule:nonzero;"/>
    </g>
</svg>
